<?xml version="1.0" encoding="utf-8"?>
<!-- Generator: Adobe Illustrator 23.0.6, SVG Export Plug-In . SVG Version: 6.00 Build 0)  -->
<svg version="1.1" xmlns="http://www.w3.org/2000/svg" xmlns:xlink="http://www.w3.org/1999/xlink" x="0px" y="0px"
	 viewBox="0 0 1920 1080" style="enable-background:new 0 0 1920 1080;" xml:space="preserve">
<style type="text/css">
	.st0{fill:url(#SVGID_1_);}
	.st1{fill:none;}
	.st2{fill:#FFFFFF;}
	.st3{font-family:'Dosis-Medium';}
	.st4{font-size:144px;}
	.st5{fill:#93345B;}
	.st6{font-size:72px;}
	.st7{fill:#A01058;}
	.st8{font-size:48px;}
	.st9{opacity:0.5;fill:#FFFFFF;}
	.st10{font-size:24px;}
	.st11{opacity:0.7;}
	.st12{opacity:0.7;fill:#FFFFFF;}
	.st13{font-size:30px;}
	.st14{fill:#260433;}
	.st15{fill:#B51F63;}
	.st16{opacity:0.3;fill:#93345B;}
	.st17{fill:#BA1A6A;}
	.st18{font-size:80px;}
</style>
<g id="BG">
	<g>
		<linearGradient id="SVGID_1_" gradientUnits="userSpaceOnUse" x1="960" y1="1080" x2="960" y2="-9.094947e-13">
			<stop  offset="0" style="stop-color:#93345B"/>
			<stop  offset="0.0772" style="stop-color:#812C55"/>
			<stop  offset="0.2457" style="stop-color:#601E48"/>
			<stop  offset="0.4194" style="stop-color:#47123F"/>
			<stop  offset="0.5983" style="stop-color:#340A38"/>
			<stop  offset="0.7853" style="stop-color:#2A0634"/>
			<stop  offset="0.994" style="stop-color:#260433"/>
		</linearGradient>
		<rect class="st0" width="1920" height="1080"/>
	</g>
</g>
<g id="Text">
	<rect x="593" y="169" class="st1" width="734" height="174"/>
	<text transform="matrix(1 0 0 1 654.5088 278.4395)" class="st2 st3 st4">synesthete</text>
	<rect x="889.66" y="295.6" class="st1" width="402.45" height="95.4"/>
	<text transform="matrix(1 0 0 1 918.3765 350.3154)" class="st5 st3 st6">hear in color</text>
	<rect x="763.64" y="408.1" class="st1" width="402.45" height="57.9"/>
	<text transform="matrix(1 0 0 1 776.4967 444.5752)" class="st7 st3 st8">what is synesthesia?</text>
	<rect x="564" y="475" class="st1" width="813" height="145"/>
	<text transform="matrix(1 0 0 1 582.4863 493.2397)"><tspan x="0" y="0" class="st9 st3 st10">A cool blurb explaining what synesthesia is. Lorem ipsum dolor sit amet, consectetur </tspan><tspan x="-12.89" y="33" class="st9 st3 st10">adipiscing elit, sed do eiusmod tempor incididunt ut labore et dolore magna aliqua. Quis </tspan><tspan x="3.04" y="66" class="st9 st3 st10">viverra nibh cras pulvinar mattis nunc sed. Et pharetra pharetra massa massa. Risus </tspan><tspan x="130.92" y="99" class="st9 st3 st10">viverra adipiscing at in tellus integer feugiat scelerisque. </tspan></text>
	<rect x="763.35" y="639.88" class="st1" width="402.45" height="57.9"/>
	<text transform="matrix(1 0 0 1 866.4464 676.3641)" class="st7 st3 st8">what to do</text>
	<rect x="766.06" y="704.08" class="st1" width="487.94" height="35.92"/>
	<text transform="matrix(1 0 0 1 766.064 726.8788)" class="st11"><tspan x="0" y="0" class="st12 st3 st13">Search for a song by title, artist, or album. </tspan></text>
	<rect x="765.58" y="769.44" class="st1" width="487.94" height="35.92"/>
	<text transform="matrix(1 0 0 1 765.5842 792.2381)" class="st11"><tspan x="0" y="0" class="st12 st3 st13">Select the song you’re looking for.</tspan></text>
	<rect x="765.58" y="831.44" class="st1" width="487.94" height="35.92"/>
	<text transform="matrix(1 0 0 1 765.5842 854.2381)" class="st11"><tspan x="0" y="0" class="st12 st3 st13">Watch and listen!</tspan></text>
</g>
<g id="Layer_3">
	<path class="st14" d="M1079.5,994h-218c-21.82,0-39.5-17.68-39.5-39.5v0c0-21.82,17.68-39.5,39.5-39.5h218
		c21.82,0,39.5,17.68,39.5,39.5v0C1119,976.32,1101.32,994,1079.5,994z"/>
	<rect x="906.67" y="931.08" class="st1" width="127.36" height="52.9"/>
	<text transform="matrix(1 0 0 1 927.1047 967.5596)"><tspan x="0" y="0" class="st15 st3 st8">start</tspan><tspan x="86.49" y="0" class="st5 st3 st8"> </tspan></text>
	<g>
		<circle class="st14" cx="722" cy="717" r="23"/>
		<rect x="705.17" y="706.08" class="st1" width="33.33" height="26.92"/>
		<text transform="matrix(1 0 0 1 718.8491 724.3198)" class="st5 st3 st10">1</text>
	</g>
	<g>
		<circle class="st14" cx="722" cy="780" r="23"/>
		<rect x="705.17" y="769.08" class="st1" width="33.33" height="26.92"/>
		<text transform="matrix(1 0 0 1 716.0415 787.3198)" class="st5 st3 st10">2</text>
	</g>
	<g>
		<circle class="st14" cx="722" cy="845" r="23"/>
		<rect x="705.17" y="834.08" class="st1" width="33.33" height="26.92"/>
		<text transform="matrix(1 0 0 1 715.8726 852.3198)" class="st5 st3 st10">3</text>
	</g>
</g>
<g id="Layer_4">
	<g>
		<rect x="420" y="15" class="st16" width="1483" height="106"/>
		<rect x="16" y="15" class="st16" width="1887" height="106"/>
		<rect x="524" y="43.1" class="st1" width="201.61" height="72.9"/>
		<text transform="matrix(1 0 0 1 571.2866 79.5752)" class="st2 st3 st8">home</text>
		<rect x="855.69" y="43.08" class="st1" width="201.61" height="72.9"/>
		<text transform="matrix(1 0 0 1 894.8212 79.5596)" class="st17 st3 st8">search</text>
		<rect x="49.84" y="30.1" class="st1" width="408.16" height="78.9"/>
		<text transform="matrix(1 0 0 1 49.8412 90.8977)" class="st7 st3 st18">synesthete</text>
	</g>
</g>
</svg>
